# xmcd
#
# Track frame offsets:
#	150
#	18257
#	34235
#	57782
#	72410
#	86857
#	108055
#	123702
#	139327
#
# Disc length: 2089 seconds
#
# Revision: 4
# Processed by: cddbd v1.5.2PL0 Copyright (c) Steve Scherf et al.
# Submitted via: audiograbber 1.83.01
#
DISCID=7d082709
DTITLE=Waters, Muddy  - Folk Singer
DYEAR=1963
DGENRE=Blues
TTITLE0=My home is in the Delta (feat. Buddy Guy and Willie Dixon)
TTITLE1=Long Distance (feat. Buddy Guy and Willie Dixon)
TTITLE2=My Captain (feat. Buddy Guy)
TTITLE3=Good morning school girl (feat. Buddy Guy and Willie Dixon)
TTITLE4=You gonna need my help (feat. Buddy Guy)
TTITLE5=Cold weather blues (feat. Buddy Guy)
TTITLE6=Big leg woman (feat. Buddy Guy)
TTITLE7=Country boy (feat. Buddy Guy and Willie Dixon)
TTITLE8=Feel like going home
EXTD=
EXTT0=
EXTT1=
EXTT2=
EXTT3=
EXTT4=
EXTT5=
EXTT6=
EXTT7=
EXTT8=
PLAYORDER=
